HIERARCHY
ROOT hip
{
	OFFSET 0.000000 0.000000 0.000000 
	CHANNELS 6 Xposition Yposition Zposition Xrotation Zrotation Yrotation
	JOINT abdomen
	{
		OFFSET 0.000000 3.402643 0.000000 
		CHANNELS 3 Xrotation Zrotation Yrotation
		JOINT chest
		{
			OFFSET 0.000000 8.438565 -0.680529 
			CHANNELS 3 Xrotation Zrotation Yrotation
			JOINT neck
			{
				OFFSET 0.000000 10.207942 -0.272212 
				CHANNELS 3 Xrotation Zrotation Yrotation
				JOINT head
				{
					OFFSET 0.000000 3.130431 0.000000 
					CHANNELS 3 Xrotation Zrotation Yrotation
					End Site
					{
						OFFSET 0.000000 3.130435 0.000000 
					}
				}
			}
			JOINT lCollar
			{
				OFFSET 3.470700 6.669187 -0.816635 
				CHANNELS 3 Yrotation Zrotation Xrotation
				JOINT lShldr
				{
					OFFSET 3.198488 0.000000 0.000000 
					CHANNELS 3 Zrotation Yrotation Xrotation
					JOINT lForeArm
					{
						OFFSET 10.139888 0.000000 0.000000 
						CHANNELS 3 Yrotation Zrotation Xrotation
						JOINT lHand
						{
							OFFSET 8.370511 0.000000 0.000000 
							CHANNELS 3 Zrotation Yrotation Xrotation
							End Site
							{
								OFFSET 4.083176 0.000000 0.000000 
							}
						}
					}
				}
			}
			JOINT rCollar
			{
				OFFSET -3.470700 6.669187 -0.816635 
				CHANNELS 3 Yrotation Zrotation Xrotation
				JOINT rShldr
				{
					OFFSET -3.198488 0.000000 0.000000 
					CHANNELS 3 Zrotation Yrotation Xrotation
					JOINT rForeArm
					{
						OFFSET -10.139888 0.000000 0.000000 
						CHANNELS 3 Yrotation Zrotation Xrotation
						JOINT rHand
						{
							OFFSET -8.370511 0.000000 0.000000 
							CHANNELS 3 Zrotation Yrotation Xrotation
							End Site
							{
								OFFSET -4.083176 0.000000 0.000000 
							}
						}
					}
				}
			}
		}
	}
	JOINT lThigh
	{
		OFFSET 5.308129 -1.633274 1.361059 
		CHANNELS 3 Xrotation Zrotation Yrotation
		JOINT lShin
		{
			OFFSET -2.041588 -20.007561 0.000000 
			CHANNELS 3 Xrotation Zrotation Yrotation
			JOINT lFoot
			{
				OFFSET 0.000000 -19.190928 -1.224953 
				CHANNELS 3 Xrotation Yrotation Zrotation
				End Site
				{
					OFFSET 0.000000 -2.449906 4.627600 
				}
			}
		}
	}
	JOINT rThigh
	{
		OFFSET -5.308129 -1.633274 1.361059 
		CHANNELS 3 Xrotation Zrotation Yrotation
		JOINT rShin
		{
			OFFSET 2.041588 -20.007561 0.000000 
			CHANNELS 3 Xrotation Zrotation Yrotation
			JOINT rFoot
			{
				OFFSET 0.000000 -19.190928 -1.224953 
				CHANNELS 3 Xrotation Yrotation Zrotation
				End Site
				{
					OFFSET 0.000000 -2.449906 4.627600 
				}
			}
		}
	}
}
MOTION
Frames: 18
Frame Time: 0.016667
20.668436 46.087307 -23.571213 3.064320 6.114360 -8.745340 -20.394199 -1.337670 3.247730 20.439501 -0.351562 1.289780 12.347800 -3.379250 -1.383600 10.528100 3.537750 -0.346267 2.000000 -2.000000 0.000000 -88.200600 9.175250 165.701996 41.602001 -0.317082 0.090830 0.115946 -0.133403 166.828003 -2.000000 2.000000 0.000000 90.868599 -10.948400 155.151993 -27.695601 0.335901 0.063546 -0.055822 0.021321 -144.557999 -23.636690 -4.970190 -10.247379 20.503836 2.385327 1.755140 0.944950 2.506433 1.104162 0.495085 0.891840 5.115975 18.591867 -4.006080 -1.206447 -27.889711 -32.990189 -15.768917 
20.751568 46.066975 -23.379337 2.880570 6.622560 -8.466310 -20.572001 -1.432210 3.218040 20.058599 0.009765 1.259680 12.672500 -2.921880 -1.414370 10.706300 3.749510 -0.369034 2.000000 -2.000000 0.000000 -87.872902 7.695140 158.987000 39.150799 -0.320871 0.086375 0.073879 -0.076620 -165.447006 -2.000000 2.000000 0.000000 90.759903 -10.584800 154.087997 -26.621401 0.337071 0.061265 -0.055306 0.017032 -143.016006 -23.382935 -5.655428 -10.156780 20.587688 2.351762 1.787263 0.866183 2.295038 1.100657 0.773985 0.096452 5.047285 18.605099 -3.988462 -1.194519 -28.003702 -32.961533 -15.840208 
20.868399 46.091038 -23.128712 3.044020 5.997450 -8.343460 -20.314800 -1.261000 3.257530 20.781300 -0.136718 1.298270 12.563500 -2.838120 -1.704460 10.725900 3.759020 -0.513103 2.000000 -2.000000 0.000000 -88.020401 7.219620 160.326004 39.053101 -0.321018 0.086195 0.075354 -0.079273 -166.531006 -2.000000 2.000000 0.000000 90.681702 -9.891920 154.304001 -26.172199 0.337547 0.060305 -0.055306 0.017032 -143.016006 -23.451080 -5.244157 -10.248626 21.018471 2.372002 1.802217 0.314527 1.913738 1.053555 0.951760 0.569155 4.464710 18.543604 -3.999968 -1.215425 -26.987358 -32.912846 -15.222836 
21.003204 46.113956 -22.899542 2.900280 6.632190 -8.444030 -20.473700 -1.468040 3.289440 20.625000 0.058594 1.279380 12.443400 -2.590960 -1.805230 10.638700 3.847180 -0.567346 2.000000 -2.000000 0.000000 -88.128403 7.240840 161.078003 41.045300 -0.317959 0.089833 0.073801 -0.076476 -165.388000 -2.000000 2.000000 0.000000 90.613403 -9.804130 154.352997 -25.703400 0.338037 0.059299 -0.055196 0.015971 -142.634995 -23.155249 -5.988185 -9.634150 20.996635 2.318538 1.842552 0.263832 1.599925 1.040691 1.059977 -0.504079 3.329191 18.760532 -4.011521 -1.207184 -26.208517 -32.104332 -14.457043 
21.147333 46.164532 -22.663181 3.036500 6.397330 -8.460110 -20.639000 -1.475760 3.352340 20.497999 -0.166016 1.308760 12.352200 -2.390040 -1.897030 10.649300 3.924680 -0.616282 2.000000 -2.000000 0.000000 -87.641602 7.479430 162.932999 42.158600 -0.316196 0.091819 0.075747 -0.079962 -166.813995 -2.000000 2.000000 0.000000 90.739403 -9.304660 153.690002 -25.263901 0.338488 0.058353 -0.054947 0.013248 -141.658005 -23.044800 -5.895555 -9.750081 20.996622 2.314924 1.832168 0.026113 1.500167 1.028081 0.871661 -0.456241 2.975786 19.408121 -3.978700 -1.258312 -25.549301 -31.924686 -14.028291 
21.307642 46.200565 -22.414577 2.635210 6.701950 -8.754570 -20.689899 -1.637150 3.394710 20.302700 -0.175780 1.299610 12.905200 -2.013470 -1.962560 10.895100 4.028850 -0.645341 2.000000 -2.000000 0.000000 -87.535004 7.530980 164.123993 43.086399 -0.314697 0.093448 0.077005 -0.082109 -167.703003 -2.000000 2.000000 0.000000 90.622498 -8.875770 154.061996 -24.883101 0.338873 0.057529 -0.054873 0.012321 -141.326004 -22.447039 -6.384016 -9.391812 21.019199 2.290379 1.837227 -0.171637 1.502578 1.000850 1.187026 -1.247175 2.214630 19.854315 -3.998409 -1.299041 -23.849405 -31.587330 -12.900286 
21.518162 46.234024 -22.163952 2.691710 6.233400 -8.632920 -20.536600 -1.521870 3.062130 20.761700 -0.195311 1.161380 12.588700 -2.393730 -1.931700 10.815500 3.903610 -0.626759 2.000000 -2.000000 0.000000 -87.867401 7.259090 164.798004 44.219200 -0.312831 0.095403 0.078482 -0.094305 -168.718994 -2.000000 2.000000 0.000000 90.280502 -8.045780 154.102997 -24.609600 0.339146 0.056937 -0.054721 0.010166 -140.554993 -22.259541 -6.107830 -9.068250 21.087158 2.301550 1.847600 -0.115913 0.792691 0.949275 1.092775 -1.168885 1.340144 20.525801 -3.985105 -1.342788 -23.546040 -30.681080 -12.438337 
21.685883 46.322960 -21.926357 2.278860 6.176790 -8.728610 -20.564800 -1.471150 3.086200 20.556601 -0.107422 1.181620 12.431200 -2.392750 -2.069030 10.697800 3.885400 -0.695599 2.000000 -2.000000 0.000000 -88.102097 7.435930 165.257004 45.469200 -0.310728 0.097518 0.076490 -0.081238 -167.341995 -2.000000 2.000000 0.000000 90.240997 -7.625230 153.811005 -24.638901 0.339117 0.057000 -0.054628 0.008582 -139.988007 -21.597672 -6.240800 -8.732034 21.175209 2.308299 1.856865 -0.403340 0.360541 0.901654 1.598843 -1.406023 0.656076 21.140169 -4.005443 -1.383083 -24.199785 -29.374208 -12.366286 
21.873039 46.361950 -21.629782 2.247710 5.767070 -9.001720 -20.637400 -1.239280 3.232020 20.683599 -0.185546 1.288620 12.223700 -2.522500 -2.197830 10.550700 3.857740 -0.777213 2.000000 -2.000000 0.000000 -88.405800 7.888590 166.740005 46.855900 -0.308341 0.099809 0.078988 -0.095117 -169.059998 -2.000000 2.000000 0.000000 89.861000 -7.617190 154.612000 -25.117500 0.338636 0.058036 -0.054858 0.012130 -141.257996 -21.367004 -6.089701 -8.928006 21.536695 2.329007 1.863379 -1.055490 0.366207 0.865965 1.533647 -1.477538 -0.080606 21.744164 -3.973848 -1.434164 -22.470779 -29.147575 -11.368425 
22.073227 46.410851 -21.412071 2.275280 5.279060 -9.556170 -20.576200 -0.865265 3.089130 20.888700 0.126951 1.289820 11.949100 -2.187390 -1.997240 10.455000 4.072180 -0.701163 2.000000 -2.000000 0.000000 -89.060402 7.714330 167.395004 48.076599 -0.306195 0.101778 0.079441 -0.095834 -169.363007 -2.000000 2.000000 0.000000 89.188202 -7.073040 155.873001 -25.840099 0.337895 0.059593 -0.055026 0.014174 -141.990005 -21.290842 -5.665233 -8.382668 21.898245 2.352944 1.880279 -1.554090 0.267276 0.850933 1.207820 -1.356794 -0.041717 22.643744 -3.952690 -1.504855 -21.743673 -28.706610 -10.819184 
22.248472 46.484848 -21.208067 2.077430 4.742990 -9.691210 -20.606600 -0.795194 2.969940 20.693399 0.019531 1.240280 12.029400 -2.105140 -2.025730 10.484000 4.042770 -0.692608 2.000000 -2.000000 0.000000 -89.080704 8.244220 168.488007 50.439899 -0.301922 0.105458 0.081579 -0.099108 -170.759995 -2.000000 2.000000 0.000000 88.985298 -6.941470 158.216003 -27.236601 0.336406 0.062574 -0.055633 0.019857 -144.031006 -20.943672 -5.273756 -8.012193 22.111778 2.376713 1.880654 -1.859068 -0.065204 0.814789 0.913690 -1.143103 -0.309519 23.833424 -3.908082 -1.589187 -20.201183 -29.381929 -10.206525 
22.436640 46.512653 -20.808477 1.540190 5.457020 -9.950890 -20.324400 -0.890974 2.964750 21.220699 0.527308 1.226900 11.652800 -2.277950 -2.110000 10.336300 3.956880 -0.732118 2.000000 -2.000000 0.000000 -89.149803 8.677180 169.882996 52.744598 -0.297613 0.108874 -179.923996 -179.904007 6.496290 -2.000000 2.000000 0.000000 88.655098 -6.790060 160.384003 -29.473000 0.333872 0.067270 -0.057071 0.029152 -147.389999 -19.896494 -6.242253 -7.341214 21.751081 2.348315 1.872481 -2.286397 -0.471858 0.746836 0.932007 -2.716135 -1.580134 25.219193 -3.860008 -1.680481 -18.099789 -28.845459 -8.990196 
22.683334 46.543533 -20.522463 1.364080 5.662470 -9.777190 -20.447100 -1.110210 2.769190 21.093800 0.439434 1.088180 11.250300 -2.472660 -2.090750 10.110000 3.832790 -0.722007 2.000000 -2.000000 0.000000 -88.935799 9.471140 171.130005 55.947800 -0.291404 0.113327 -179.919998 -179.899002 4.113470 -2.000000 2.000000 0.000000 88.335403 -7.568520 163.459000 -32.803101 0.329764 0.074070 -0.059235 0.039090 -151.022995 -19.424677 -6.806825 -7.349353 21.576385 2.321005 1.851419 -2.224701 -0.712001 0.682130 0.509261 -3.690977 -2.660034 26.511909 -3.817822 -1.752481 -17.178751 -27.753773 -8.304226 
22.893744 46.532604 -20.274645 1.040110 5.594790 -9.702800 -20.428301 -1.079520 2.684100 21.044901 0.576151 1.059700 11.156600 -2.058680 -2.126150 10.033100 3.979190 -0.750974 2.000000 -2.000000 0.000000 91.385696 169.822006 -7.485110 59.961498 -0.283288 0.118407 -179.917007 -179.895996 2.716990 -2.000000 2.000000 0.000000 87.722504 -8.396600 166.826004 -36.855900 0.324242 0.082007 -0.062362 0.049912 -155.046997 -19.055758 -7.059507 -7.236800 21.962282 2.309401 1.890699 -2.492383 -0.897311 0.616589 0.506434 -4.107049 -3.248989 27.753698 -3.782682 -1.854709 -16.518152 -26.973333 -7.775330 
23.098648 46.529774 -19.965490 0.529860 5.585700 -9.420370 -20.145000 -0.962471 2.578900 21.386801 0.800697 1.027360 10.469400 -1.946620 -2.220410 9.720810 4.088950 -0.820611 2.000000 -2.000000 0.000000 92.029404 169.464996 -4.829690 64.228996 -0.274291 0.123171 -179.914001 -179.891998 0.920125 -2.000000 2.000000 0.000000 86.620903 -9.526930 169.938004 -42.510201 0.315630 0.092387 -0.075536 0.059321 -158.621002 -18.287840 -7.486969 -7.242198 22.020523 2.319829 1.901195 -2.518370 -1.073375 0.524249 0.536333 -4.682264 -4.212774 29.250805 -3.736557 -1.942649 -15.816406 -26.709427 -7.424710 
23.344782 46.530289 -19.656225 0.078542 5.908200 -9.395250 -20.081301 -1.165770 2.370380 21.328199 0.888591 0.900788 10.076000 -2.265600 -2.201550 9.523540 3.925470 -0.811376 2.000000 -2.000000 0.000000 93.132401 169.098999 -2.975080 68.984901 -0.263878 0.127674 -179.903000 -179.882004 0.519756 -2.000000 2.000000 0.000000 -94.558899 -169.078003 -6.512150 -48.955502 0.304623 0.103117 -0.078798 0.066937 -161.580002 -17.516197 -8.166056 -6.745035 21.784771 2.310207 1.874751 -2.552922 -1.261725 0.468689 0.489554 -5.577989 -4.631623 31.182337 -3.670193 -2.059712 -15.584014 -26.261646 -7.147592 
23.527220 46.539558 -19.461319 -0.078483 5.478510 -9.265270 -20.017300 -1.083300 1.839100 21.181801 1.093690 0.666413 9.780780 -2.279460 -2.008240 9.425830 3.945760 -0.718568 2.000000 -2.000000 0.000000 94.088898 168.042007 -2.137700 76.836502 -0.245984 0.133173 -179.914001 -179.893005 1.095910 -2.000000 2.000000 0.000000 -96.081200 -168.065002 -3.418970 -56.250500 0.290804 0.113682 -0.081447 0.072430 -163.757996 -17.357992 -7.983952 -6.446498 22.256701 2.316949 1.906382 -2.677925 -1.483676 0.398350 -0.294679 -5.448052 -4.402737 33.122883 -3.599140 -2.211117 -15.067110 -25.970041 -6.874575 
23.734484 46.538006 -19.231249 -0.254813 4.833940 -9.415930 -19.687000 -0.999727 1.477540 21.523600 1.064300 0.516188 9.328490 -2.138620 -1.792640 9.299160 4.014910 -0.603837 2.000000 -2.000000 0.000000 95.709999 168.264008 -1.053200 84.307198 -0.228411 0.136089 -179.912003 -179.891006 0.187706 -2.000000 2.000000 0.000000 -97.945801 -167.237000 -0.462045 -65.000504 0.272627 0.123914 -0.082817 0.075077 -164.822006 -17.273962 -7.597851 -6.146816 22.990894 2.358414 1.958629 -3.063005 -1.736957 0.321700 -0.860256 -5.108333 -4.188875 35.044559 -3.481755 -2.327148 -13.848060 -26.585606 -6.463682 
